<?xml version="1.0" encoding="utf-8"?>
<svg xmlns="http://www.w3.org/2000/svg" xmlns:xlink="http://www.w3.org/1999/xlink" version= "1.1" width="1000px" height="1459px" viewBox="-140 0 1000 1459">
<g id="layer1">
<g style="fill:rgb(0,49,82); fill-opacity:1.0; stroke-linejoin: miter">
<path d="M335.742,1006.54175L286.85516,1002.3605Q296.1488,973.46246,300.84253,948.61206L285.45337,898.98553L279.7165,934.93445L260.06628,936.9464L229.42236,936.5845L200.0947,944.1675L195.87979,909.9679L197.92572,871.3738L193.03783,800.2571Q218.1851,716.99396,238.63217,659.87524L265.55786,651.26086L290.3439,648.5585L287.10382,680.06165L331.62213,691.32117L413.6524,701.32043L491.19885,661.25635L498.58142,651.70605L531.4257,656.9966L554.5084,665.31946L580.71606,766.17926L583.66614,838.07935L575.21466,891.9825L561.6404,956.7411Q534.04346,948.79895,514.5974,939.0809L494.52747,941.6608L501.16687,987.5344L470.2981,996.66907L335.742,1006.54175"/>
</g>
<g style="fill:rgb(0,0,0); fill-opacity:1.0; stroke-linejoin: miter">
<path d="M499.91943,396.00595Q499.45947,399.07074,499.00107,402.2273Q496.8403,417.10553,494.59888,434.0443Q490.6002,457.78534,480.28824,572.05035Q478.9047,585.1117,476.59204,591.70374Q475.42657,597.03296,467.78186,605.42175L425.26562,648.4033Q413.72253,659.4928,410.74512,660.1652Q410.8072,660.43243,410.2712,660.43243Q407.7174,660.43243,391.58603,654.3668L297.799,618.12427Q283.51376,613.04236,277.27982,605.6813Q275.91956,604.99036,271.5174,595.30365Q254.02876,541.2071,236.23317,495.3681Q236.23228,495.36737,236.2314,495.3666L236.23218,495.3676Q234.94238,492.04324,233.65094,488.76425Q228.07095,485.46228,224.24733,483.41516L224.24509,483.41617Q224.43889,484.31982,224.63695,485.22375Q224.641,485.22745,224.64507,485.2311L224.64282,485.23212Q226.65752,494.44492,228.88765,503.5849Q233.22057,520.1084,239.23006,541.15625L239.23009,541.1572Q239.22787,541.1569,239.22566,541.1576Q239.57436,542.3622,239.92378,543.5816L239.92374,543.5826Q239.92174,543.5829,239.91974,543.5842Q245.03114,561.4052,251.31058,582.3911Q260.27835,611.7356,267.88672,618.68787Q273.8638,625.656,283.48904,629.64075Q357.41406,659.4585,399.4022,674.3236Q403.70593,675.7569,408.02124,675.7569Q419.69638,675.7569,431.45618,665.2655Q478.22095,618.68243,477.29016,618.48895L477.28537,618.4899Q477.236,618.4929,477.1557,618.5383Q488.57486,604.57935,491.25513,594.8506Q497.72812,572.869,504.35455,480.01624Q504.45044,478.5014,504.54456,477.00052L504.53952,477.00153Q502.10754,478.31714,499.47098,479.72696L499.46942,479.72797Q502.11047,478.31396,504.53995,476.9938Q504.66843,475.02536,504.78885,473.08087L504.78268,473.08188Q507.0601,436.4081,508.2579,408.27814Q508.2571,408.27762,508.25635,408.27713L508.2579,408.27814Q508.35812,405.9238,508.45078,403.63123Q503.87375,399.48508,499.91943,396.00595 Z M245.98834,539.39246L245.98834,539.39343Q245.98834,539.39246,245.98834,539.39246L245.98589,539.39343Q245.98589,539.39246,245.98589,539.39246 Z"/>
</g>
<g style="fill:rgb(0,0,0); fill-opacity:1.0; stroke-linejoin: miter">
<path d="M509.3415,340.088Q509.348,340.26773,509.3543,340.44876Q509.38913,340.27628,509.42392,340.10443L509.3466,340.088 Z"/>
</g>
<g style="fill:rgb(0,0,0); fill-opacity:1.0; stroke-linejoin: miter">
<path d="M246.76051,538.82556L246.82695,538.86884Q247.02786,539.01074,246.89224,539.24097Q240.16971,540.20245,216.13937,549.2541Q204.99911,553.6428,199.33897,557.86316Q198.22163,558.9496,196.40593,552.08417Q187.07028,502.03717,174.97687,444.8681Q169.99469,406.29327,169.6068,387.5423Q168.17589,330.41852,189.14874,303.8449Q219.08989,264.31268,259.36444,254.24573Q282.56958,248.7826,303.2914,252.5695Q318.37476,255.13756,328.4436,258.3976Q341.0277,262.0407,367.2498,272.31842Q370.1535,273.3781,375.04547,273.08997Q379.89697,272.51605,382.43234,271.02246Q412.97888,252.02211,425.32623,247.92957Q441.70215,241.64084,455.55292,241.47305Q481.8769,239.64575,516.7183,265.21088Q545.89105,288.4583,560.9021,323.28357Q585.9174,379.86462,562.02875,513.30115L534.4346,535.20233Q530.99756,537.8404,531.9033,540.77545Q535.21277,542.78125,536.0379,535.87054L536.21265,507.49542Q535.8827,487.62823,534.94775,467.6122Q535.18176,461.89154,530.6798,458.10767Q526.16974,456.03754,520.93585,459.4359L492.60315,483.3692Q519.66406,469.12665,528.34155,462.9488Q526.404,462.8958,525.27124,476.1891Q524.0152,490.89972,522.38184,530.1721Q521.3971,546.1419,527.15314,550.3546Q543.5763,552.56305,573.3332,524.2792Q577.4478,520.4232,579.2324,510.06934Q588.2939,448.6494,589.3844,422.2386Q591.8298,376.4317,585.0682,346.14865Q573.55676,286.66544,516.78436,245.05276Q482.91412,222.41867,448.09595,225.53949Q427.62207,228.17592,411.59796,235.94421L385.83032,249.76697L375.1407,256.46893Q373.05005,258.06665,374.47394,258.08014Q313.29944,230.97652,272.88367,235.2539Q227.09406,239.97069,188.61844,278.52655Q161.8169,307.17612,155.67574,344.83063Q148.73349,382.22998,160.17987,454.68192Q184.43462,559.9454,191.05063,559.80695Q196.74442,566.1811,207.83176,561.5858Q233.15613,548.9303,246.76051,538.82556"/>
</g>
<g style="fill:rgb(0,0,0); fill-opacity:1.0; stroke-linejoin: miter">
<path d="M471.60947,377.30634L471.60947,377.30734C471.03754,377.3063,470.47366,377.34726,469.9178,377.42917C465.82928,379.42093,464.05414,385.26114,463.68344,394.92923C463.495,399.84448,464.3224,424.40063,467.07288,468.6605C466.76566,467.6398,465.54062,466.96152,463.39777,466.62564L437.55908,465.37512C413.70477,464.32977,394.035,463.80716,378.54977,463.80716C367.24316,463.80716,358.17368,464.1682,351.32263,464.64307C341.3353,465.3353,332.13605,466.82095,323.84088,469.6467C319.66443,471.0694,316.2491,472.82742,313.48993,474.6238C312.37405,475.3503,311.28625,476.10608,310.22635,476.89084C310.2091,476.8426,310.19116,476.79395,310.17258,476.7449L295.5515,448.98813C288.55774,437.123,282.2014,430.351,276.4825,428.6723C273.5479,429.81207,272.7154,436.06836,273.33853,447.48267C275.6335,489.52118,277.2972,513.0673,278.9765,518.08734C276.23077,515.7908,267.00876,509.55725,251.22552,499.51996C244.39987,495.1792,238.51627,491.63934,233.65898,488.76685L233.65665,488.76785C234.51419,490.95248,235.37263,493.15222,236.23198,495.3671C244.09892,502.00336,252.27191,508.46573,260.8175,514.6628C265.4798,518.04376,270.6835,520.9669,276.0376,524.10223C277.1568,524.7576,278.66895,525.3571,280.95825,525.3571C281.40717,525.3571,281.884,525.3721,282.37985,525.30884C286.32748,524.80536,287.88727,516.67676,287.10715,501.01422C285.7765,474.2991,284.85587,457.48578,284.3095,450.57605L284.31235,450.57706L300.7171,481.52136C302.9477,486.16595,306.02545,488.48828,309.95038,488.48828C310.59586,488.48828,311.2591,488.3927,311.95557,488.29987C313.0494,488.15405,313.67288,488.0315,313.85388,487.8756C316.59122,485.51813,319.26862,483.70038,321.82645,482.33673C323.6328,481.37372,325.82162,480.39557,328.45572,479.56915C335.54733,477.3442,343.43008,476.12445,352.04492,475.4887C358.1385,475.03903,366.70557,474.6668,377.77026,474.6668C398.55054,474.6668,428.1121,475.63187,466.4547,477.56577C466.56592,477.57138,466.67792,477.57608,466.79095,477.57608C468.14355,477.57608,469.57434,476.99323,471.23807,476.09717C475.1001,474.01712,477.5702,468.91245,477.2998,460.51794C475.9804,419.55707,486.4935,419.64798,483.93503,407.93906L481.57614,406.36798C487.14066,411.3967,495.6012,415.17062,504.7355,413.49454L499.00195,402.22226C499.0016,402.22357,499.0013,402.22528,499.00107,402.2273C501.90576,404.1537,504.9914,406.1703,508.2579,408.27713C508.3247,406.7079,508.389,405.15924,508.45078,403.63123C505.39938,400.8671,502.5556,398.32532,499.91943,396.00595L499.91812,396.00696C493.7848,390.6093,488.71042,386.50912,484.9165,383.42697C480.00644,379.43805,475.64655,377.3063,471.60947,377.30634L471.60947,377.30734 Z"/>
</g>
<g style="fill:rgb(0,0,0); fill-opacity:1.0; stroke-linejoin: miter">
<path d="M224.2461,483.4157Q224.43889,484.31982,224.63695,485.22375Q230.31146,490.37146,236.2316,495.36612Q234.9421,492.0425,233.65094,488.76425Q228.07169,485.4627,224.24834,483.4157 Z"/>
</g>
<g style="fill:rgb(0,0,0); fill-opacity:1.0; stroke-linejoin: miter">
<path d="M732.2533,547.8362L732.25336,547.8362Q732.25696,547.8364,732.2937,547.83716Q732.41925,547.83936,732.426,547.83954Q732.4475,547.83997,732.44507,547.8403Q732.4425,547.84015,732.452,547.8402Q732.4595,547.8402,732.48553,547.8406Q732.52466,547.84106,732.541,547.8413L732.56305,547.8416Q732.5831,547.8419,732.5965,547.8421L732.6179,547.84235Q732.6394,547.8425,732.63696,547.8423L732.6294,547.8421L732.577,547.8412Q732.5559,547.8409,732.28174,547.8367Q732.2542,547.83624,732.2533,547.8362"/>
</g>
<g style="fill:rgb(0,0,0); fill-opacity:1.0; stroke-linejoin: miter">
<path d="M475.2324,595.3303Q474.56848,596.63885,473.62366,598.08Q477.82407,603.9558,483.04776,610.7923L483.04776,610.7933Q483.04544,610.7956,483.04315,610.7989Q492.4093,623.0437,505.07858,638.36993Q506.74213,641.2461,506.11642,641.5683Q506.58887,641.9533,503.20102,644.54065Q481.87274,656.1975,425.013,692.874Q423.71204,693.9892,416.94415,695.82263Q413.9011,696.394,410.22134,696.394Q407.36716,696.394,404.12994,696.05023L317.8996,683.2321Q297.91943,680.3612,293.22064,680.1842Q293.09396,680.2201,292.97653,680.2201Q291.32663,680.2201,291.5015,673.1388Q293.87402,650.0007,295.15637,634.3346Q295.155,634.33405,295.15363,634.3335L295.15652,634.3345Q295.96252,624.4862,296.3378,617.5917Q294.29474,616.8245,292.42395,616.00775L292.421,616.0087Q291.07315,622.49097,289.2814,631.97504Q289.28677,631.9772,289.2921,631.9794L289.2892,631.98035Q287.23447,642.80975,284.60962,657.5529Q282.35693,671.5211,282.61002,678.8064Q282.65384,683.281,286.54828,685.9593Q288.38843,688.1876,302.28894,691.3104Q343.48718,698.3633,389.84784,704.86865Q402.99847,706.36475,410.36713,706.36475Q414.93808,706.36475,417.28412,705.78906Q417.34277,705.79047,417.40314,705.79047Q426.5807,705.79047,475.85217,673.37366Q504.00452,655.27325,503.91595,654.76355Q513.66425,646.87396,513.7022,643.8399Q518.1809,638.2013,486.15216,606.0418L486.14575,606.0428Q481.14084,601.0101,475.23715,595.3303 Z"/>
</g>
<g style="fill:rgb(0,0,0); fill-opacity:1.0; stroke-linejoin: miter">
<path d="M580.9618,563.8142L580.96185,563.8142Q580.9614,563.81433,580.99005,563.81146L581.1337,563.7968L581.1512,563.79504Q581.1533,563.79486,581.1527,563.79504L581.31525,563.778Q581.3438,563.775,581.3435,563.7749L580.9618,563.8142"/>
</g>
<g style="fill:rgb(0,0,0); fill-opacity:1.0; stroke-linejoin: miter">
<path d="M284.85968,647.02246Q267.75327,647.02246,249.01068,648.65485Q248.41159,648.6182,247.82735,648.6182Q240.70857,648.6182,235.7943,654.0594Q231.61218,657.68353,223.51978,680.7805Q191.73904,773.016,189.59033,786.2534Q186.27464,798.26733,188.12271,836.11316L192.42334,927.50525Q193.8934,943.5332,195.72386,945.53Q196.77138,947.7178,198.2854,948.7881Q198.70552,949.7602,202.72893,949.7602Q203.3068,949.7602,203.95898,949.7401L214.51982,947.8749L237.60684,939.67676L271.40848,944.27405Q278.7577,944.0984,281.8199,940.50903Q286.47516,934.5274,287.31168,922.9763L289.88928,881.10754Q290.42682,871.2244,290.33807,868.4735Q290.34897,862.3199,289.18884,856.2168L277.89767,800.54144Q277.67218,797.6674,277.90982,794.5617Q281.3353,764.06036,281.92535,745.81506L281.92252,745.81604Q271.01233,785.8838,270.25882,800.0837Q270.15192,803.05023,271.55844,813.62915Q273.63586,828.48596,278.74506,859.12805Q279.3269,863.0189,279.49762,866.5208L279.50653,872.2968L276.8693,920.2764Q276.3822,931.8119,276.83432,934.51117Q276.86224,935.04834,276.6581,935.11053Q247.61792,929.0843,239.12242,929.0843Q237.99634,929.0843,237.23122,929.1902Q233.12866,929.57056,225.0099,932.54236L206.46458,939.5119Q205.47166,939.647,202.51596,941.9116Q203.4169,935.96204,203.06378,927.9375L197.87392,812.99835Q197.6123,801.8474,197.9849,800.2133Q198.87418,789.18036,203.14159,776.0216L237.36183,671.00183Q239.88922,663.36145,241.00792,661.0521Q241.92296,658.2832,251.60272,656.14923L285.79584,650.91254Q285.79587,650.9123,285.79593,650.91205L285.7988,650.913L286.6007,650.78925L293.8247,649.4512Q293.93616,648.28296,294.04056,647.14325Q290.31497,647.0439,286.50452,647.02625L286.50165,647.0272Q285.684,647.02246,284.85968,647.02246 Z"/>
</g>
<g style="fill:rgb(0,0,0); fill-opacity:1.0; stroke-linejoin: miter">
<path d="M458.10025,645.3197L458.10028,645.3243Q458.09973,645.3332,458.1073,645.33826L458.1124,645.34045L458.1195,645.3421L458.12894,645.3431L458.141,645.34344L458.15604,645.343L458.17435,645.3419L458.19632,645.34L458.29138,645.3312Q458.29205,645.33105,458.29184,645.3313Q458.2894,645.33136,458.31085,645.3301Q458.3453,645.3281,458.38766,645.3258L458.40967,645.32446Q458.42966,645.32306,458.44296,645.3217L458.47122,645.3189L458.4762,645.3187L458.47952,645.319L458.48154,645.3198L458.48257,645.32135Q458.48315,645.32324,458.4831,645.32684L458.47562,645.3297L458.4548,645.33136L458.42337,645.33185L458.38394,645.3314L458.33917,645.3303L458.29175,645.32874L458.24432,645.3268Q458.1479,645.32245,458.10025,645.3197"/>
</g>
<g style="fill:rgb(0,0,0); fill-opacity:1.0; stroke-linejoin: miter">
<path d="M510.43127,650.68677Q527.4374,652.5361,545.8937,656.1851Q546.4932,656.21344,547.07404,656.2766Q554.15106,657.0462,558.44836,662.98676Q562.2142,667.0418,567.7622,690.87823Q589.38544,786.009,590.09045,799.401Q592.08795,811.70294,586.15936,849.12726L572.00385,939.5188Q568.80963,955.2938,566.77405,957.08105Q565.49615,959.1427,563.8753,960.0431Q563.35254,960.96405,559.3527,960.5291Q558.77826,960.4667,558.132,960.37616L547.8348,957.3802L525.7693,946.73425L491.66876,947.65045Q484.38165,946.68134,481.72546,942.7819Q477.74408,936.3321,478.16125,924.7584L480.125,882.85626Q480.65906,872.97296,481.04468,870.24774Q481.6991,864.129,483.51227,858.1872L500.75604,804.0587Q501.29095,801.2259,501.39044,798.1127Q501.28247,767.4198,502.66827,749.21765L502.67096,749.21893Q509.1856,790.23126,508.3996,804.42944Q508.18518,807.39014,505.6433,817.755Q501.97192,832.30023,493.58002,862.2103Q492.581,866.0155,492.0327,869.47845L491.3994,875.2196L488.83435,923.2032Q488.07147,934.7237,487.3302,937.35815Q487.24432,937.8892,487.44055,937.97314Q516.9621,935.1217,525.4078,936.0401Q526.5273,936.16187,527.2764,936.34985Q531.31384,937.1715,539.0637,941.0036L556.7469,949.937Q557.71936,950.17865,560.4129,952.7496Q560.16046,946.7374,561.379,938.7982L578.9641,825.0937Q580.4297,814.0364,580.23596,812.3716Q580.5446,801.3072,577.7248,787.7643L555.0584,679.66046Q553.3718,671.7916,552.50934,669.37494Q551.899,666.52325,542.50665,663.35535L509.08002,654.4529Q509.08002,654.45264,509.08002,654.45233L509.07703,654.453L508.2932,654.2433L501.2563,652.1321Q501.27173,650.9586,501.29114,649.81433Q505.0056,650.1183,508.79565,650.5127L508.7984,650.514Q509.61182,650.59766,510.43127,650.68677 Z"/>
</g>
<g style="fill:rgb(0,0,0); fill-opacity:1.0; stroke-linejoin: miter">
<path d="M289.10278,893.92993L287.32712,922.7256L296.3619,966.1038Q296.37653,968.80725,295.10245,970.63354L281.63275,989.52893Q279.92273,991.97076,278.8388,994.76575Q276.1758,1000.64526,282.15262,1005.8845Q286.05215,1008.7919,297.63992,1010.047Q339.18503,1013.2507,348.36887,1013.2507Q350.889,1013.2507,350.9723,1013.0094Q461.19537,1001.395,490.83813,995.9845Q501.55316,994.15015,505.22247,987.65326Q509.26047,984.10376,506.95013,964.06506Q505.23624,955.74384,503.3964,947.3355L502.13974,947.36926L503.39136,947.3355L497.7607,947.48676L497.7607,947.48773L503.39075,947.3355Q502.24432,942.0703,501.04285,936.77094L501.03784,936.7719Q496.05392,937.1619,490.18222,937.7122Q491.25906,942.5009,492.4122,947.6305L492.41162,947.6315Q493.0126,950.30133,493.6353,953.06366Q496.25272,965.39734,497.35187,973.612Q498.04376,981.4342,497.52432,981.4342Q497.48315,981.4342,497.43433,981.385Q496.1209,983.49164,488.12103,985.2827Q475.53876,987.96906,458.3974,989.95056L354.18994,1001.95074Q349.0364,1002.35535,345.1728,1002.35535Q344.1292,1002.35535,343.17975,1002.3258Q299.2504,999.1969,291.8054,999.1969Q291.4626,999.1969,291.19714,999.20355Q290.65338,999.1896,290.15533,999.1896Q288.88803,999.1896,287.91696,999.2801Q288.4725,998.693,288.98798,997.88165L302.3968,978.56726Q306.00485,972.8728,305.8825,964.0089Q306.02957,955.6015,293.687,910.0675Q291.2626,901.44885,289.10278,893.92993 Z"/>
</g>
<g style="fill:rgb(0,0,0); fill-opacity:1.0; stroke-linejoin: miter">
<path d="M482.30307,862.722Q481.45078,866.4508,481.04468,870.24774Q480.65906,872.97296,480.125,882.85626L479.793,889.9406Q482.77542,904.36597,488.36166,929.51245Q488.59695,926.788,488.83435,923.2032L490.44424,893.08746Q486.56772,878.035,482.3079,862.722 Z"/>
</g>
<g style="fill:rgb(0,0,0); fill-opacity:1.0; stroke-linejoin: miter">
<path d="M278.82962,859.6679L278.82962,859.6689Q279.3388,863.2631,279.49762,866.5208L279.50653,872.2968L279.00583,881.4064L279.00452,881.4301Q280.1572,887.7981,281.42285,894.378L287.32712,922.7256L288.55862,902.7216L289.09982,893.9309Q282.86386,872.21075,278.8324,859.6679 Z"/>
</g>
<g style="fill:rgb(0,0,0); fill-opacity:1.0; stroke-linejoin: miter">
<path d="M499.8336,936.8667Q499.0919,936.92645,498.33124,936.98956Q499.0975,936.92664,499.83856,936.86707L499.84357,936.86804L499.8338,936.8684Q499.09305,936.927,498.33353,936.9899Q498.28714,936.994,498.23578,936.99817L498.22766,936.99915Q498.19888,937.00055,498.17007,937.003Q498.17325,937.00275,498.1764,937.00256L498.18137,937.00354Q498.17575,937.003,498.17023,937.0035Q499.42386,940.02997,500.44067,942.1849Q500.99292,943.4551,502.9707,947.3468L502.97522,947.3467L502.97522,947.34766L502.99664,947.3461L503.0339,947.34515L502.9658,947.347L503.00464,947.34595L503.03735,947.34503L503.03735,947.346L503.09222,947.34357L503.15686,947.34186L503.04016,947.34503L503.3964,947.3355L502.96088,947.3472Q503.3224,948.0388,503.7189,948.81323L503.71893,948.8142Q503.72263,948.8303,503.72635,948.84735Q505.37976,952.05664,507.79263,956.68097Q508.47348,958.0569,508.55154,958.8034Q508.66467,959.0378,508.3321,959.80505Q507.69574,960.4675,506.57626,962.28046Q504.9029,964.9903,502.15012,970.2706Q500.34283,973.6753,500.4584,974.36005Q500.0867,976.1295,500.84814,978.87616L504.22897,987.9743Q504.22293,987.96765,504.21503,987.96765Q504.06598,987.96765,503.24655,990.30756L503.24658,990.30853Q503.23865,990.31586,503.2307,990.3241Q501.9762,993.9375,499.12408,1003.092Q498.8179,1007.1244,499.84552,1008.92163Q501.27274,1012.6287,505.60342,1012.90906Q506.04343,1012.93634,506.59122,1012.93634Q512.8164,1012.93634,532.9636,1009.4167Q538.6599,1008.2373,541.76245,1004.44366Q551.5615,992.9442,551.47943,992.76764L551.4739,992.7686Q551.45795,992.77045,551.4448,992.7795Q553.84937,989.34607,554.44147,987.0839Q555.6003,983.24805,555.41187,970.2147Q555.37805,964.773,555.17224,959.5166L553.1999,958.94196L555.1722,959.515Q555.0897,957.41,554.97974,955.3347Q554.7895,951.546,554.6256,948.86816L552.7359,947.9107Q552.0896,951.49414,551.1659,958.35095Q551.1611,958.3871,551.1562,958.4232Q550.5447,962.2079,548.5665,982.79535Q548.4746,984.2845,547.5225,985.89465L536.54865,997.2959Q533.97266,999.9084,533.49835,1000.13007Q513.0016,1002.2098,508.81482,1002.93115Q508.98618,1002.56793,509.13544,1002.1293Q509.46603,1001.8847,512.3417,990.01385Q512.7797,986.86115,511.901,984.4655Q508.68604,977.2255,507.79688,975.73413L507.78677,975.7361L507.78677,975.73706Q507.7867,975.73126,507.78665,975.7265Q507.60278,975.4097,507.52048,975.35754Q507.59082,975.35406,507.77075,975.05835Q507.7707,975.05475,507.7706,975.05115L507.7757,975.0521Q508.1136,974.4918,508.8142,972.91907Q513.3104,962.79755,513.3504,962.50006L513.3453,962.50104Q513.33215,962.50854,513.3204,962.52795Q514.22095,960.2221,513.87506,957.6893Q513.6122,955.48456,507.6631,947.2209L507.65234,947.222L503.39075,947.3355L507.65234,947.221Q505.13422,943.7081,501.5791,939.10205L501.5741,939.103Q501.919,940.64496,502.2599,942.1849L502.25793,942.18585Q501.91483,940.6403,501.56702,939.0929Q500.7363,938.0102,499.84387,936.867L499.8391,936.868Q499.841,936.8668,499.8429,936.8667 Z"/>
</g>
<g style="fill:rgb(0,0,0); fill-opacity:1.0; stroke-linejoin: miter">
<path d="M502.97028,947.3468L502.96573,947.3469L502.97034,947.3468 Z"/>
</g>
<g style="fill:rgb(0,0,0); fill-opacity:1.0; stroke-linejoin: miter">
<path d="M606.3024,983.91595L606.29517,983.9214Q606.2805,983.93176,606.27673,983.94464Q606.27295,983.9576,606.2883,983.9788Q606.29626,983.9896,606.3106,984.0036L606.39844,984.08215L606.47687,984.17035Q606.50006,984.1945,606.5266,984.21423Q606.5294,984.2168,606.5287,984.21893L606.52704,984.2214L606.51855,984.22864Q606.49335,984.2402,606.3024,983.91595"/>
</g>
<g style="fill:rgb(0,0,0); fill-opacity:1.0; stroke-linejoin: miter">
<path d="M266.81482,937.1153Q267.51834,937.2497,268.2396,937.38916Q267.51294,937.2492,266.81003,937.1152L266.80515,937.11554L266.81445,937.11694Q267.51715,937.25006,268.23737,937.3893Q268.28134,937.398,268.33002,937.40735L268.3377,937.40906Q268.3651,937.4134,268.3924,937.4187Q268.3894,937.4182,268.3864,937.4177L268.38153,937.4181Q268.38696,937.41815,268.3922,937.4192Q266.87802,940.18475,265.68103,942.14087Q265.02054,943.2989,262.72348,946.817L262.71918,946.8164L262.7191,946.8173L262.69873,946.81366L262.66318,946.80884L262.72815,946.8176L262.6911,946.8126L262.6599,946.80835L262.6598,946.80927L262.60754,946.8013L262.5459,946.7929L262.6572,946.8081L262.31735,946.76196L262.73285,946.8184Q262.31503,947.44257,261.85507,948.1422L261.85495,948.1432Q261.84976,948.1582,261.84442,948.17413Q259.9287,951.07306,257.13916,955.2469Q256.34467,956.4927,256.19235,957.19885Q256.05972,957.4114,256.29816,958.18005Q256.83817,958.88007,257.72083,960.73114Q259.04022,963.4979,261.12518,968.8366Q262.50046,972.2822,262.31866,972.9254Q262.49036,974.6571,261.4762,977.2061L257.29532,985.56Q257.30182,985.5544,257.3094,985.5552Q257.452,985.5707,257.99274,987.8947L257.9926,987.8956Q257.99945,987.9035,258.0062,987.9122Q258.83084,991.50006,260.60803,1000.55597Q260.48175,1004.4462,259.3116,1006.059Q257.56055,1009.4577,253.38763,1009.2756Q252.96378,1009.256,252.43967,1009.1991Q246.48317,1008.5518,227.57156,1003.08923Q222.2438,1001.3685,219.66962,997.4161Q211.48923,985.3942,211.58612,985.2338L211.59134,985.2353Q211.60638,985.2387,211.61798,985.2487Q209.67426,981.7135,209.34293,979.48755Q208.63297,975.6967,210.16833,963.2455Q210.76648,958.0422,211.50993,953.0342L213.45688,952.6894L211.51018,953.03265Q211.80794,951.02704,212.12895,949.0528Q212.70488,945.44745,213.14015,942.9022L215.04779,942.1825Q215.29362,945.67847,215.46455,952.3354Q215.46541,952.3705,215.4663,952.4056Q215.65791,956.09033,215.4101,975.9949Q215.34323,977.42926,216.08682,979.06885L225.40154,991.11896Q227.59467,993.8865,228.02548,994.14795Q247.42125,998.26904,251.3523,999.3945Q251.2261,999.0292,251.1289,998.59393Q250.83798,998.32544,249.32076,986.6681Q249.22942,983.60596,250.31927,981.40515Q254.14822,974.8118,255.15405,973.47723L255.16351,973.4801L255.16342,973.4811Q255.1641,973.4755,255.16464,973.47095Q255.3735,973.18695,255.4577,973.14557Q255.39075,973.1349,255.24933,972.83325Q255.24976,972.82983,255.25024,972.8264L255.24524,972.82684Q254.9802,972.2556,254.47333,970.6778Q251.22357,960.52576,251.21625,960.23694L251.22104,960.2384Q251.23282,960.24695,251.24207,960.2668Q250.62013,957.9668,251.21442,955.5794Q251.69519,953.49713,258.2467,946.2086L258.25687,946.21075L262.32275,946.7626L258.257,946.2098Q261.03168,943.1104,264.91226,939.0727L264.91693,939.07416Q264.4266,940.51373,263.94034,941.9518L263.9421,941.9529Q264.4311,940.5097,264.92477,939.06525Q265.8322,938.11566,266.80496,937.11456L266.80942,937.11597Q266.80774,937.1147,266.80594,937.1143 Z"/>
</g>
<g style="fill:rgb(0,0,0); fill-opacity:1.0; stroke-linejoin: miter">
<path d="M311.07156,1000.1461Q311.72256,1005.55383,312.4659,1011.1641Q314.47647,1026.3387,317.16275,1042.9955Q324.69315,1089.6829,336.18423,1142.587L344.08472,1202.1787Q344.94214,1208.4072,346.51028,1212.7588Q349.99246,1220.4237,355.1551,1220.4237Q355.92206,1220.4237,356.7261,1220.2545Q399.43643,1214.4851,405.89883,1208.5841Q409.37885,1205.8397,409.899,1193.8152Q409.47766,1138.1777,408.90662,1131.2898Q407.2533,1108.1122,403.41437,1074.5397Q402.5124,1066.9515,400.60278,1056.8527L400.5988,1056.8536Q399.3332,1050.1385,397.6182,1042.3146L397.6142,1042.3156Q397.45715,1042.9838,397.29837,1043.6687Q397.39874,1045.2941,397.60864,1047.908Q396.0421,1062.7297,395.72556,1071.0841L395.72556,1071.0851Q395.72333,1071.0903,395.72113,1071.0964Q395.6034,1074.316,395.66754,1076.574L398.32184,1135.7734L399.42596,1201.1737L356.54883,1210.8418L355.55704,1210.6742Q355.24582,1210.3877,355.141,1209.5485Q354.89767,1201.6313,352.43564,1182.2163L347.79044,1146.4285Q347.16757,1141.7217,346.17752,1136.8044Q327.89648,1048.8867,325.8129,1041.9298Q321.6273,1024.5233,318.306,1011.5857Q318.3043,1011.5856,318.30258,1011.58545L318.3057,1011.5864Q316.7462,1005.5097,315.3773,1000.4202Q313.12646,1000.2745,311.07495,1000.1461 Z"/>
</g>
<g style="fill:rgb(0,0,0); fill-opacity:1.0; stroke-linejoin: miter">
<path d="M412.09973,959.73303L412.10013,959.7329L412.27386,959.6525L412.4475,959.57086L412.09973,959.73303"/>
</g>
<g style="fill:rgb(0,0,0); fill-opacity:1.0; stroke-linejoin: miter">
<path d="M496.70074,982.62695Q496.11374,982.7695,495.51334,982.9158Q495.51117,982.91693,495.50903,982.918L495.50406,982.919Q494.0548,983.27124,492.5094,983.65027Q492.4885,983.8904,492.46753,984.1326L492.46747,984.1336Q492.46497,984.1334,492.4625,984.1342Q492.03046,989.1879,491.5798,995.156Q491.55307,995.50665,491.52652,995.8605L491.52637,995.86145Q491.52396,995.86096,491.52155,995.8614Q490.54492,1008.9463,489.49792,1026.3455Q488.66376,1033.5597,486.04813,1123.3198Q485.93378,1128.3345,486.14407,1133.0776L487.83252,1169.1261Q488.80557,1188.6724,489.9513,1196.51Q489.99493,1197.3546,489.73868,1197.691L488.7915,1198.0297L444.88416,1196.0132L434.52783,1131.4286L427.8945,1081.111Q427.89178,1081.1067,427.8891,1081.1023L427.89334,1081.1033L426.78278,1072.678Q426.26248,1069.1757,424.87918,1063.4271Q421.85938,1057.1919,418.53067,1050.5994L418.5265,1050.6003Q418.363,1059.1128,418.54803,1065.9565Q418.5524,1065.9637,418.55676,1065.971L418.55258,1065.9719Q418.6355,1069.185,418.7995,1072.0306Q420.89417,1105.7568,423.32184,1128.8662Q423.9648,1135.7478,433.28516,1190.6007Q435.90125,1202.3486,439.80777,1204.4419Q445.15442,1207.825,469.14386,1207.825Q478.33548,1207.825,490.26398,1207.3282Q490.39624,1207.3324,490.52682,1207.3324Q491.20682,1207.3324,491.84033,1207.2198Q496.92334,1206.3165,499.0106,1198.1606Q499.79315,1193.6018,499.5475,1187.3193L496.89905,1127.2645Q498.956,1073.1659,498.2011,1025.8812Q497.93576,1009.2838,497.2775,994.21344L497.27252,994.2144Q497.2667,993.96606,497.25577,993.7191Q497.006,988.0653,496.70074,982.62695 Z"/>
</g>
<g style="fill:rgb(0,0,0); fill-opacity:1.0; stroke-linejoin: miter">
<path d="M387.82968,998.0769L385.2897,998.3694L387.82993,998.0769 Z"/>
</g>
<g style="fill:rgb(0,0,0); fill-opacity:1.0; stroke-linejoin: miter">
<path d="M387.82993,998.0769L384.4174,998.46985Q386.77042,1004.1998,388.79706,1008.94635L388.79724,1008.9473Q388.7953,1008.94653,388.79333,1008.9468Q391.31525,1014.8441,393.3354,1019.2232Q396.7695,1026.6329,399.9328,1032.9274L399.9328,1032.9283Q399.93213,1032.9299,399.93143,1032.9326Q402.38315,1037.803,404.66867,1042.0055Q404.86264,1042.3661,405.06165,1042.7334L405.06165,1042.7344Q405.0609,1042.7358,405.06018,1042.7382Q410.1549,1052.134,418.54785,1065.9493L418.54785,1065.9503Q418.54794,1065.953,418.54803,1065.9565Q420.86554,1069.7644,423.42975,1073.9081Q425.7963,1077.7482,427.8932,1081.102L426.78278,1072.678Q426.26248,1069.1757,424.87918,1063.4271Q421.8596,1057.1924,418.53116,1050.6002L418.52643,1050.6012Q415.7637,1045.1191,412.78577,1039.3912Q410.58585,1035.4944,408.33313,1031.6055L408.32904,1031.6064Q405.66812,1027.005,402.92923,1022.4156L402.9252,1022.41656Q398.72018,1015.36285,394.33655,1008.33636L394.3326,1008.33734Q391.13184,1003.1996,387.83383,998.0769 Z"/>
</g>
<g style="fill:rgb(0,0,0); fill-opacity:1.0; stroke-linejoin: miter">
<path d="M388.06305,1091.3182Q388.07687,1091.4763,388.1243,1091.4763Q388.16974,1091.4763,388.24603,1091.3313L388.06696,1091.3182 Z"/>
</g>
<g style="fill:rgb(0,0,0); fill-opacity:1.0; stroke-linejoin: miter">
<path d="M388.0651,1090.8455Q387.96948,1091.0715,387.8739,1091.2965L387.86343,1091.3035L388.06305,1091.318Q388.0493,1091.1603,388.06897,1090.8455 Z"/>
</g>
<g style="fill:rgb(0,0,0); fill-opacity:1.0; stroke-linejoin: miter">
<path d="M402.93033,1022.4242Q402.93124,1022.4272,402.93295,1022.43005Q401.93414,1025.7258,400.81335,1029.6547Q400.38004,1031.2201,399.93005,1032.9379Q398.82254,1037.1654,397.61395,1042.3156Q397.61496,1042.3202,397.616,1042.3248L397.61203,1042.3258Q397.4533,1043.0004,397.29523,1043.6823Q397.39963,1045.3049,397.60864,1047.908Q396.0421,1062.7297,395.72556,1071.0841Q398.14755,1064.3259,400.59848,1056.8536Q400.5984,1056.8531,400.5983,1056.8527L400.5986,1056.8536Q402.81863,1050.0848,405.06165,1042.7334Q406.50687,1037.9966,407.96194,1033.0168Q408.14255,1032.3309,408.3288,1031.6064Q405.67062,1027.0093,402.93436,1022.4242 Z"/>
</g>
<g style="fill:rgb(0,0,0); fill-opacity:1.0; stroke-linejoin: miter">
<path d="M416.44815,994.7813L412.4268,995.2444Q410.19675,1001.00464,408.10394,1006.7972Q411.17584,1006.45,414.14694,1006.11066Q414.3613,1005.135,414.57117,1004.136Q415.5685,999.3515,416.4562,994.7818L416.44815,994.7813 Z"/>
</g>
<g style="fill:rgb(0,0,0); fill-opacity:1.0; stroke-linejoin: miter">
<path d="M355.16968,1215.6282L355.15265,1215.6587Q336.36545,1233.4714,326.77283,1246.9004Q325.29367,1251.3033,327.02597,1255.2671L331.81732,1266.9315Q332.91165,1269.3972,335.68948,1271.438Q339.00864,1274.3374,349.39615,1273.4894Q358.05328,1272.9849,384.7343,1267.9492Q401.97882,1264.7134,407.20355,1262.5311Q409.58832,1261.5862,411.41943,1260.3472L413.09518,1259.0076Q414.62402,1257.5808,415.49725,1255.6969Q416.37048,1253.813,416.52008,1251.363L416.47177,1248.7444Q415.66995,1240.0933,414.45233,1231.6718Q410.55612,1204.8701,405.09552,1182.1458Q404.8728,1181.6447,405.49774,1186.7368Q405.02768,1200.9254,405.504,1209.8645Q406.0247,1220.7245,408.28387,1248.6001Q408.17474,1252.4626,407.72717,1252.572Q407.26987,1253.4869,406.30026,1253.998Q405.3307,1254.509,403.71378,1254.7437Q390.04388,1256.0288,376.5799,1258.5923Q345.68982,1264.9182,340.7906,1266.5012L333.61203,1251.5323Q332.6198,1249.4094,332.76367,1249.0696Q340.13882,1239.2651,346.22696,1230.3088L354.57294,1217.3767L355.50308,1215.8136Q355.5419,1215.8914,355.16968,1215.6282"/>
</g>
<g style="fill:rgb(0,0,0); fill-opacity:1.0; stroke-linejoin: miter">
<path d="M440.1079,1199.2855L440.11993,1199.245Q440.43127,1228.0537,443.85107,1252.2251Q444.32297,1257.4717,446.07437,1261.1586L447.21967,1262.7318Q448.50748,1264.1545,450.34857,1265.0854Q455.90518,1267.6583,466.1421,1267.7815Q509.72333,1268.8593,518.04944,1267.7373Q527.80035,1266.5125,530.1523,1264.8383Q535.2181,1261.8271,536.6029,1256.558Q538.4283,1255.3978,538.0955,1224.1531Q538.0663,1217.7399,535.6762,1213.9586Q534.8346,1212.7555,533.5958,1212.0168L532.24097,1211.4158Q529.0865,1210.719,524.8562,1211.3893Q518.71716,1211.9203,506.59845,1214.1521L490.9973,1217.2743Q488.51758,1217.8588,486.95322,1218.4647Q487.3119,1217.6598,487.68808,1213.981L488.8583,1201.2087L484.85284,1213.1871L484.10675,1216.3895Q483.56323,1219.2534,486.7962,1220.9801Q488.9978,1222.0094,496.90857,1221.6974Q523.3126,1219.6133,528.90063,1218.5793Q530.26,1218.5905,530.0858,1218.8903Q526.4404,1240.7585,528.1688,1256.3916Q527.7738,1256.8606,526.8136,1257.0962Q526.7533,1257.3044,522.439,1257.4629Q492.99005,1257.2676,458.82925,1258.1876Q454.5479,1258.2207,453.70767,1258.0408Q453.36685,1257.9302,452.9877,1257.0233L451.7992,1252.9939Q445.97656,1221.9924,444.272,1214.988Q442.72714,1207.8159,440.93192,1200.924L440.4874,1199.3422L440.1079,1199.2855"/>
</g>
<g style="fill:rgb(0,0,0); fill-opacity:1.0; stroke-linejoin: miter">
<path d="M461.1648,229.53468L461.16452,229.53093Q461.165,229.5236,461.16736,229.52344L461.1706,229.52191Q461.17453,229.52058,461.18253,229.51976Q461.18298,229.5193,461.21887,229.51756L461.34317,229.51193Q461.34802,229.51172,461.35367,229.51157Q461.35583,229.5115,461.3552,229.51186Q461.35498,229.51175,461.35562,229.51169L461.3621,229.51091L461.39542,229.50722Q461.4672,229.49945,461.47253,229.49919Q461.4925,229.4975,461.50586,229.49695L461.5179,229.49657L461.5273,229.4965Q461.5337,229.49657,461.54285,229.49692L461.5449,229.4968L461.54587,229.49634L461.54605,229.49385Q461.53842,229.4878,461.1648,229.53468"/>
</g>
<g style="fill:url(#grad0); fill-opacity:1.0; stroke-linejoin: miter">
<path d="M509.35764,340.3981L509.36945,340.39908L509.36435,340.39908Q509.3593,340.42392,509.3543,340.44876Q509.35342,340.42343,509.35254,340.3981 Z M459.10287,240.9166Q457.2998,240.9166,455.53415,241.03877L455.5296,241.03877Q441.60834,241.21136,425.17044,247.5239L425.169,247.5239Q412.76785,251.6416,382.20282,270.65347L382.20255,270.65347Q379.7486,272.09494,375.00348,272.65735L374.99973,272.65735Q373.9773,272.71704,373.04468,272.71704Q369.6173,272.71704,367.40875,271.91385L367.40836,271.91385Q341.18182,261.6344,328.57825,257.9842L328.57745,257.9842Q318.48047,254.71503,303.36972,252.14203L303.36954,252.14203Q294.8474,250.58461,285.90842,250.58461Q273.0191,250.58461,259.26486,253.82274L259.25906,253.82414Q218.83594,263.92825,188.80234,303.58255L188.80222,303.58255Q167.73772,330.27985,169.17238,387.5532L169.1724,387.5532Q169.56099,406.32776,174.5459,444.92377L174.55173,444.95804Q186.64398,502.12164,195.97874,552.1639L195.98582,552.19525Q197.54706,558.0985,198.81688,558.42035L198.8167,558.42035Q198.91838,558.44617,199.02063,558.44617Q199.19412,558.44617,199.35648,558.373Q199.49036,558.3126,199.60994,558.20465L199.60794,558.20465Q205.22002,554.0234,216.2926,549.66077L216.29256,549.66077Q231.13011,544.0718,239.35637,541.573C239.54185,541.51666,239.66759,541.3443,239.66457,541.15045L239.66455,541.1495L239.6479,541.0369Q233.64099,519.99805,229.30988,503.4819L229.30981,503.4819Q227.08891,494.37976,225.0818,485.2054L225.07956,485.2054C225.07689,485.16125,225.06749,485.11795,225.05191,485.077L225.04967,485.077Q224.95856,484.66086,224.86867,484.24542L224.87091,484.24542Q228.40334,486.16605,233.30432,489.0641L233.30199,489.0641Q234.56497,492.27188,235.82646,495.52426C235.89223,495.69382,236.05489,495.8017,236.23135,495.8017C236.25786,495.8017,236.28468,495.7993,236.31152,495.79425C236.51712,495.75577,236.66615,495.5763,236.66615,495.36713L236.66615,495.36612C236.66615,495.31235,236.65616,495.25903,236.63672,495.20892Q235.57912,492.48303,234.52255,489.78574L234.5249,489.78574Q241.47421,493.9203,250.99472,499.88815L250.99469,499.88815Q274.60074,514.9939,278.6977,518.42065C278.778,518.48785,278.8771,518.5219,278.97656,518.5219C279.06177,518.5219,279.14722,518.4969,279.22134,518.44635C279.382,518.3368,279.4503,518.13385,279.3886,517.94946Q276.88864,510.47617,273.77255,447.4612L273.7719,447.45078Q272.55795,430.94736,276.50598,429.13403L276.50876,429.13403Q284.86548,431.71478,295.17715,449.2088L295.1766,449.2088L309.7861,476.94357L309.783,476.94357Q309.80057,476.99075,309.81714,477.03708C309.86343,477.16663,309.96832,477.2666,310.09995,477.3066C310.1414,477.3192,310.18396,477.3254,310.2263,477.3254C310.31833,477.3254,310.40918,477.29614,310.48492,477.24008Q312.06424,476.07086,313.72702,474.98798L313.727,474.98798Q317.82013,472.3234,323.9768,470.0597L323.97604,470.0597Q336.41577,465.98804,351.3491,465.0768L351.35788,465.07617Q361.60754,464.2417,378.54977,464.2417Q401.7677,464.2417,437.54007,465.80927L437.53998,465.80927L463.36023,467.0589L463.3556,467.0589Q466.2764,467.5219,466.65677,468.78574C466.7128,468.97195,466.884,469.0951,467.07254,469.0951C467.09796,469.0951,467.1237,469.09283,467.14948,469.08823C467.3667,469.04932,467.5203,468.8538,467.5066,468.63354Q463.38312,402.27893,464.1158,394.9726L464.11798,394.93228Q464.21722,380.76437,470.04626,377.85034L470.04156,377.85034Q470.81458,377.74088,471.60947,377.74088Q477.50626,377.74088,484.6362,383.75903L484.6508,383.7708Q490.441,388.2455,499.62988,396.33316L499.63345,396.33316Q503.5225,399.75488,508.01324,403.82126L508.00818,403.82126Q507.91904,406.0215,507.82376,408.25964Q506.62622,436.38382,504.3491,473.0538L504.34903,473.0538C504.34848,473.06274,504.3482,473.07175,504.3482,473.0808L504.34824,473.0808C504.34824,473.24426,504.44028,473.39493,504.58768,473.46902L504.58533,473.46902C504.64093,473.49744,504.70355,473.51422,504.77,473.51617C504.77432,473.5163,504.77866,473.51636,504.78296,473.51636C504.8898,473.51636,504.9883,473.4775,505.06442,473.41272L505.06323,473.41272L521.1778,459.80038L521.1725,459.80038Q524.31714,457.75854,527.16144,457.75854Q528.85535,457.75854,530.45667,458.48352L530.45135,458.48352Q534.7375,462.1195,534.51355,467.59445L534.5137,467.63248Q535.4483,487.6415,535.77814,507.50262L535.778,507.50262L535.61536,533.91754C535.6143,534.0848,535.7094,534.23773,535.85974,534.3109C535.92017,534.34033,535.9852,534.35474,536.0499,534.35474C536.1462,534.35474,536.2417,534.3228,536.32007,534.2606L562.2989,513.64154C562.3818,513.57574,562.4378,513.48193,562.4565,513.37775Q586.3678,379.81476,561.3012,323.11157L561.30115,323.11157Q546.247,288.1863,516.98914,264.87103L516.9754,264.86053Q484.3434,240.9166,459.10287,240.9166 Z"/>
</g>
<g style="fill:rgb(0,0,0); fill-opacity:1.0; stroke-linejoin: miter">
<path d="M634.58234,369.6563L634.5824,369.6563Q634.586,369.6557,634.62177,369.6471L634.75726,369.61432L634.7675,369.61197Q634.7696,369.61154,634.769,369.6119L634.7966,369.60477L634.9277,369.5723Q634.95557,369.5653,634.95514,369.56512L634.58234,369.6563"/>
</g>
<g style="fill:url(#grad1); fill-opacity:1.0; stroke-linejoin: miter">
<path d="M470.88184,381.05536C470.6152,381.05536,470.39908,381.27148,470.39908,381.53812C470.39908,381.59705,470.40964,381.6535,470.42896,381.70572L470.42426,381.70572Q474.24338,399.27832,476.81744,460.5382L476.81665,460.5382Q476.61868,472.81955,471.01926,475.66684L470.98618,475.6853Q468.68393,477.09332,466.79095,477.09332Q466.63647,477.09332,466.48453,477.08392L466.479,477.08362Q408.9529,474.18405,377.77026,474.18405Q361.15128,474.18405,352.00162,475.00787L351.99875,475.00787Q339.01892,475.8185,328.31393,479.10767L328.3039,479.11087Q324.33228,480.42673,321.59607,481.91248L321.59595,481.91248Q317.70343,483.9617,313.5408,487.50812L313.5216,487.52597L313.51816,487.52597Q313.2505,487.68146,311.90622,487.8196L311.86926,487.82486Q310.87497,488.00552,309.95038,488.00552Q304.3667,488.00552,301.15228,481.31235L301.14365,481.29523L284.73907,450.3523C284.65536,450.1944,284.49124,450.09567,284.31253,450.09567L284.3097,450.09567C284.17505,450.09567,284.04648,450.1519,283.9551,450.2508C283.86374,450.3497,283.8178,450.48224,283.82843,450.6165Q284.6475,460.97632,286.62497,501.03802L286.625,501.0386Q287.7892,524.0595,282.32874,524.82855L282.3259,524.82855Q281.60632,524.8743,280.95825,524.8743Q277.70078,524.8743,276.349,523.73334L276.26654,523.6772Q268.10196,519.27905,261.1023,514.27295L261.10233,514.27295Q248.51103,505.07333,236.87634,495.27975C236.8397,495.2489,236.79865,495.2237,236.75458,495.20493L236.75221,495.20392C236.69267,495.17856,236.63019,495.16595,236.56772,495.16595C236.43764,495.16595,236.30757,495.22058,236.20401,495.32825L236.20166,495.32825C235.99118,495.41632,235.87077,495.64017,235.91408,495.8649C235.92392,495.91602,235.94162,495.96393,235.96576,496.0075L235.96341,496.0075Q253.66248,541.64343,271.05804,595.45215L271.07788,595.5034Q275.41858,605.0549,276.9698,606.0587L276.96704,606.0587Q283.2926,613.47614,297.6372,618.5791L297.6367,618.5791L391.41202,654.81714L391.4161,654.8187Q407.6296,660.9152,410.2712,660.9152Q410.5508,660.9152,410.7411,660.8531Q411.03375,660.7575,411.15277,660.55164L411.14865,660.55164Q414.4841,659.43066,425.6001,648.75146L425.60886,648.74286L468.1251,605.7613L468.1387,605.74695Q475.83047,597.3066,477.05112,591.8635L477.0476,591.8635Q479.37885,585.21857,480.7683,572.1012L480.76904,572.09375Q491.0793,457.84744,495.07495,434.12448L495.07748,434.10764Q497.3162,417.1895,499.4741,402.32925L499.47272,402.32925L499.4845,402.20764L499.48447,402.20663C499.47974,402.05023,499.3995,401.90582,499.2692,401.8192Q479.53064,388.698,471.2102,381.1799C471.1885,381.1603,471.1652,381.14282,471.14066,381.12762L471.13593,381.12762C471.06158,381.08157,470.97424,381.05536,470.88184,381.05536 Z"/>
</g>
<g style="fill:rgb(0,0,0); fill-opacity:1.0; stroke-linejoin: miter">
<path d="M650.0204,556.51404L650.024,556.5245Q650.03033,556.54425,650.041,556.55115L650.04736,556.5535L650.0551,556.554L650.0646,556.5524L650.07605,556.5487Q650.08856,556.5439,650.1062,556.5344L650.20734,556.4766L650.31476,556.4244Q650.3204,556.42206,650.3686,556.3947Q650.37366,556.3922,650.37634,556.39276L650.37885,556.3941Q650.3797,556.39307,650.3854,556.40796Q650.38824,556.4353,650.0204,556.51404"/>
</g>
<g style="fill:url(#grad2); fill-opacity:1.0; stroke-linejoin: miter">
<path d="M507.66638,947.5016L507.66687,947.50165L507.66357,947.5017L507.66342,947.5016 Z M501.579,938.8221C501.54492,938.8221,501.51047,938.8283,501.47733,938.84125L501.47284,938.84125C501.4255,938.85864,501.38315,938.88873,501.3509,938.9291C501.29776,938.9955,501.2777,939.08246,501.29636,939.1654Q501.6437,940.7109,501.98462,942.2465C501.98868,942.2648,501.9945,942.2824,502.00195,942.29926L501.99652,942.29926Q502.56168,944.844,503.11594,947.39026L503.1109,947.39026C503.13547,947.5149,503.24265,947.6096,503.37277,947.6155L503.36774,947.6155C503.37527,947.6161,503.38287,947.61646,503.39053,947.61646C503.39972,947.61646,503.409,947.61597,503.41833,947.61505C503.41876,947.615,503.41922,947.615,503.41965,947.6149L503.4146,947.6149L507.51797,947.5056L507.52304,947.5056Q513.34467,955.6053,513.5971,957.7224L513.59766,957.7272Q513.9337,960.18805,513.05963,962.4261C513.04254,962.46985,513.0372,962.51544,513.0422,962.5593L513.03705,962.5593Q512.64154,963.6137,508.55835,972.8054Q507.86542,974.3609,507.5364,974.9078L507.5358,974.9078C507.51038,974.94995,507.49576,974.9993,507.49576,975.0521L507.49576,975.0531C507.49576,975.07336,507.49792,975.0932,507.502,975.11224L507.49695,975.11224Q507.50333,975.4286,507.50684,975.7412C507.50778,975.82495,507.54544,975.8998,507.60437,975.95044L507.59927,975.95044Q508.51273,977.525,511.64514,984.5791L511.64444,984.5791Q512.4912,986.90326,512.0644,989.97534L512.0629,989.97534Q509.30325,1001.36633,508.92633,1001.94635L508.92346,1001.94635C508.90012,1001.9734,508.88202,1002.0049,508.8704,1002.03906Q508.72617,1002.4629,508.5616,1002.8117C508.51706,1002.9061,508.52878,1003.0175,508.592,1003.10065C508.64548,1003.17096,508.7283,1003.2111,508.81482,1003.2111C508.8306,1003.2111,508.8465,1003.2098,508.86237,1003.20703Q513.03973,1002.4873,533.5266,1000.40857L533.6169,1000.38367Q534.1367,1000.1407,536.748,997.49243L536.75037,997.49005L547.72424,986.0888L547.7635,986.0372Q548.7468,984.37415,548.84534,982.8222L548.8452,982.8222L548.8462,982.8121L548.8462,982.812Q550.7634,962.8589,551.3948,958.70917L551.40027,958.70917L555.09393,959.7848C555.1197,959.7923,555.146,959.79596,555.1722,959.79596C555.23206,959.79596,555.29114,959.77673,555.3402,959.7399C555.4107,959.6871,555.45215,959.60406,555.45215,959.516L555.45215,959.515L555.4519,959.504Q555.3694,957.3979,555.25934,955.3207Q555.0691,951.5317,554.905,948.8511C554.899,948.75183,554.8407,948.6633,554.752,948.6184L552.8673,947.6645L552.7899,947.6386L552.7844,947.63763C552.7678,947.6347,552.75134,947.63324,552.73505,947.63324C552.6022,947.63324,552.4843,947.7283,552.4599,947.8636Q551.828,951.36786,550.93225,957.98987L547.9354,957.1179L525.8909,946.4821C525.853,946.4638,525.81146,946.4543,525.7694,946.4543C525.76685,946.4543,525.76434,946.45435,525.7618,946.4544L507.79395,946.9381Q505.2986,943.463,501.80072,938.931C501.74652,938.86084,501.66394,938.8221,501.579,938.8221 Z"/>
</g>
<g style="fill:rgb(0,0,0); fill-opacity:1.0; stroke-linejoin: miter">
<path d="M243.53741,966.0045L243.53748,966.0045Q243.53497,966.0046,243.55646,966.00464Q243.55699,966.00464,243.59293,966.0047L243.72928,966.0048L243.72928,966.00494L243.72928,966.0048L243.82523,966.0048Q243.91228,966.00476,243.92116,966.00464L243.9136,966.0046L243.89273,966.0046L243.86119,966.0046L243.82166,966.0046L243.7768,966.0046Q243.65666,966.0046,243.6369,966.0046L243.59737,966.0046L243.56584,966.0046L243.54497,966.0045L243.53741,966.0045"/>
</g>
<g style="fill:rgb(0,0,0); fill-opacity:1.0; stroke-linejoin: miter">
<path d="M329.89594,884.9752L329.896,884.9752Q329.8996,884.9758,329.93607,884.9805L330.0793,884.999L330.08575,884.99994Q330.0863,884.99994,330.08618,885.00006L330.08624,885.0L330.09308,885.00085Q330.1779,885.01184,330.27655,885.0241L329.89594,884.9752"/>
</g>
<g style="fill:url(#grad3); fill-opacity:1.0; stroke-linejoin: miter">
<path d="M266.80496,936.9175C266.7517,936.9175,266.70074,936.939,266.66364,936.97723Q265.69543,937.97363,264.79315,938.9177L264.79053,938.9177C264.7834,938.92334,264.77658,938.9295,264.77017,938.93616Q262.85815,940.92566,261.2141,942.68866L237.63339,939.4815L237.5409,939.491L215.50555,947.3167Q215.3877,944.2071,215.24437,942.1687C215.24,942.10657,215.20656,942.05023,215.15413,942.0166C215.12196,941.996,215.08499,941.9854,215.04778,941.9854C215.0243,941.9854,215.00075,941.9896,214.97823,941.9981L213.07059,942.71783C213.00514,942.74255,212.9577,942.80005,212.9459,942.869Q212.5583,945.13556,212.05913,948.2439C212.04901,948.3069,212.06999,948.37085,212.11543,948.4156L212.1143,948.4156C212.14645,948.4477,212.18974,948.4688,212.23827,948.4726C212.24345,948.473,212.24861,948.4732,212.25374,948.4732C212.27078,948.4732,212.28741,948.471,212.30333,948.46686L212.30121,948.46686L214.5541,948.0689L214.58556,948.06067L215.12943,947.8682L215.13158,947.8682Q215.20465,949.89056,215.26756,952.34045L215.26755,952.34045Q215.2685,952.37897,215.26929,952.4105L215.2695,952.41583Q215.46078,956.0941,215.21304,975.99243L215.21294,975.99243Q215.14589,977.47125,215.90735,979.15027L215.93091,979.1894L225.24562,991.2395L225.24709,991.24133Q227.4622,994.0366,227.92323,994.3164L227.98453,994.3407Q247.37341,998.4603,251.29805,999.5839C251.31595,999.58905,251.3342,999.59155,251.3523,999.59155C251.40561,999.59155,251.45758,999.5699,251.49533,999.53C251.5459,999.4767,251.56256,999.3996,251.5368,999.32526L251.53671,999.325L251.53679,999.325Q251.41533,998.97235,251.32123,998.55096L251.2654,998.4542L251.26791,998.4542Q251.27878,998.4651,251.28403,998.4745L251.28404,998.4745Q250.98712,997.9429,249.51872,986.66223L249.51773,986.66223Q249.42801,983.6545,250.49219,981.50006L250.49203,981.50006Q254.24332,975.0406,255.2741,973.6459L255.27155,973.6459C255.30128,973.62634,255.32474,973.59955,255.34009,973.56854L255.33754,973.56854Q255.48859,973.36475,255.54561,973.3226L255.54427,973.3226C255.62144,973.28485,255.6653,973.2014,255.6526,973.11646C255.64331,973.05426,255.60527,973.00165,255.55228,972.97266L255.54973,972.97266Q255.51424,972.92975,255.44612,972.78827L255.44333,972.78827C255.43846,972.7644,255.4292,972.74176,255.4162,972.7214L255.41364,972.7214Q255.15414,972.1528,254.66101,970.61774Q251.67963,961.304,251.43384,960.3218L251.43132,960.3218C251.44113,960.2881,251.44206,960.25146,251.4323,960.21533Q250.82372,957.9647,251.40564,955.627L251.40643,955.6237Q251.87321,953.60205,258.3227,946.4189L258.32526,946.4189L262.2623,946.9532L262.2962,946.9578L262.29626,946.9578C262.30527,946.95905,262.3142,946.95966,262.32306,946.95966C262.4201,946.95966,262.5046,946.88794,262.51804,946.7891C262.53268,946.6813,262.45712,946.582,262.3493,946.5673L258.6543,946.06494L258.6517,946.06494Q259.8999,944.6765,261.3629,943.10706L261.3655,943.10706L264.8972,943.5883C264.90607,943.58954,264.91495,943.59015,264.9238,943.59015C264.97116,943.59015,265.01727,943.57306,265.0534,943.5415C265.06845,943.5284,265.08127,943.5132,265.09152,943.4965L265.09094,943.4965Q265.59137,942.69543,265.84924,942.2437L265.84912,942.2437Q267.0488,940.2832,268.56506,937.51385C268.59525,937.45874,268.59732,937.3925,268.57068,937.33563C268.5573,937.30707,268.5375,937.2826,268.5133,937.26373L268.51062,937.26373C268.4863,937.2443,268.4572,937.2305,268.42514,937.22437Q268.39835,937.21924,268.37192,937.21497L268.37277,937.21497L268.3681,937.214L268.36816,937.214Q268.3682,937.214,268.354,937.21124L268.35324,937.2111Q268.3096,937.20276,268.27585,937.19604L268.2748,937.1958Q268.23486,937.18805,268.1392,937.1696L268.1365,937.1696C268.12997,937.16766,268.1233,937.166,268.1165,937.1647Q267.48175,937.0421,266.8518,936.92175L266.83948,936.92114L266.83508,936.9207L266.83453,936.92065L266.83453,936.9207L266.81284,936.91864L266.81232,936.91864L266.81052,936.9183L266.81052,936.91815L266.81,936.91815L266.80685,936.9175 Z"/>
</g>
<g style="fill:rgb(0,0,0); fill-opacity:1.0; stroke-linejoin: miter">
<path d="M228.46117,962.04083L228.4612,962.0409L228.62529,962.1144L228.63608,962.1196Q228.63594,962.11926,228.63654,962.1196L228.64716,962.1242L228.8119,962.1965L228.46117,962.04083"/>
</g>
<g style="fill:rgb(81,0,81); fill-opacity:1.0; stroke-linejoin: miter">
<path d="M458.25607,645.3273L458.29175,645.32874L458.31085,645.3301Q458.31387,645.3299,458.31696,645.3297L458.31866,645.3301L458.31866,645.32965Q458.33377,645.3288,458.35034,645.3279L458.35492,645.3279L458.3527,645.3306L458.33917,645.3303L458.32153,645.3307L458.31866,645.3301L458.31866,645.3306L458.31305,645.33026L458.30847,645.33026Q458.29752,645.331,458.29367,645.3321L458.29166,645.3321Q458.29166,645.33215,458.29166,645.3323L458.29004,645.3313L458.25934,645.33417L458.25934,645.33417L458.25607,645.3273 Z M483.04086,610.3332C482.8875,610.3332,482.74396,610.4081,482.65625,610.53375L482.65622,610.53375Q480.09076,614.2098,476.7927,618.24133C476.6997,618.35504,476.66794,618.50134,476.69724,618.63727L476.69247,618.63727Q473.85333,622.3711,431.12515,664.9332L431.12408,664.9332Q419.50772,675.2879,408.02124,675.2879Q403.78635,675.2879,399.55896,673.8815L399.55872,673.8815Q360.95312,660.21387,295.3339,633.9002L295.32758,633.8978L295.31213,633.8922L295.30627,633.89014L295.3033,633.88916L295.30292,633.88916C295.2549,633.8733,295.20557,633.8656,295.15643,633.8656C295.06522,633.8656,294.97522,633.89197,294.89728,633.94366L294.89734,633.94366C294.77737,634.02313,294.70062,634.1532,294.6889,634.2963L294.6889,634.2964Q293.40695,649.9574,291.0349,673.09094L291.03424,673.099L291.03296,673.11926L291.03262,673.1272Q290.8472,680.6369,292.94617,680.6887L292.94553,680.6887Q292.9596,680.6891,292.97653,680.6891Q293.12094,680.6891,293.26935,680.65564L293.27228,680.65564Q298.02353,680.85,317.8329,683.6964L404.06097,696.51416L404.0667,696.51495L404.0804,696.5166L404.10443,696.518L404.09332,696.5175L404.08926,696.5175Q407.34628,696.863,410.22134,696.863Q413.94473,696.863,417.0307,696.28357L417.0383,696.282L417.05847,696.2774L417.06677,696.2753Q423.8418,694.43994,425.27768,693.2641L425.2734,693.2641Q482.11328,656.6006,503.42596,644.9522L503.43936,644.9442L503.47275,644.92255L503.4857,644.9134Q506.56998,642.55786,506.64047,641.7579Q506.644,641.7179,506.64322,641.6792L506.63815,641.6792Q506.9888,640.9887,506.03845,639.1431Q505.8015,638.68304,505.4846,638.1351L505.47534,638.12054L505.45047,638.0848L505.44006,638.0711Q492.80554,622.787,483.45877,610.5712L483.45395,610.5712C483.37363,610.4295,483.221,610.3332,483.0457,610.3332 Z"/>
</g>
<g style="fill:rgb(53,53,53); fill-opacity:1.0; stroke-linejoin: miter">
<path d="M442.0809,1205.1255C441.97595,1205.1255,441.87598,1205.1742,441.81137,1205.2566L441.809,1205.2598L441.80872,1205.2601L441.80862,1205.2601C441.74567,1205.3425,441.7236,1205.4492,441.74823,1205.5496Q442.899,1210.2405,443.93713,1215.0602L443.9379,1215.0635L443.93887,1215.0676L443.9392,1215.069Q445.6415,1222.064,451.46255,1253.0571L451.4644,1253.0657L451.4682,1253.0817L451.47067,1253.0908L452.65918,1257.1202C452.6644,1257.138,452.6721,1257.1542,452.68176,1257.1688L452.67722,1257.1688Q453.11453,1258.2084,453.60193,1258.3666L453.62955,1258.3732L453.63324,1258.3738L453.62872,1258.3738C453.63278,1258.3749,453.6369,1258.376,453.6411,1258.3768Q454.39142,1258.5353,457.58246,1258.5353Q458.16702,1258.5353,458.8319,1258.5302L458.8376,1258.53L458.8385,1258.53Q487.01282,1257.7712,511.9808,1257.7712Q517.27985,1257.7712,522.4367,1257.8054L522.4411,1257.8054L522.4481,1257.8053L522.45374,1257.805L522.45624,1257.8049L522.4566,1257.8049Q526.5202,1257.6556,526.9476,1257.4263L526.94226,1257.4263L526.8638,1257.4469L526.95386,1257.4196L526.95874,1257.4196L526.96063,1257.4185L526.95764,1257.4185L526.9637,1257.4166L526.96515,1257.4156L526.96576,1257.4156Q526.9702,1257.413,526.97455,1257.4103L526.9693,1257.4103Q527.9801,1257.1475,528.4308,1256.6123L528.4307,1256.6123C528.49115,1256.5406,528.5197,1256.448,528.5093,1256.354Q526.7887,1240.7919,530.41266,1219.0127L530.40735,1219.0127Q530.52954,1218.7406,530.33136,1218.5286L530.32605,1218.5286L530.3422,1218.551L530.30896,1218.5057Q530.2615,1218.46,530.19934,1218.4238L530.1992,1218.4238Q529.89154,1218.2449,528.90344,1218.2368L528.8862,1218.2374L528.85547,1218.2401L528.8383,1218.2426Q523.26904,1219.273,496.88315,1221.3557L496.8783,1221.3557Q495.05408,1221.4275,493.53714,1221.4275Q488.58856,1221.4275,486.9587,1220.678L486.95758,1220.678Q483.9546,1219.0741,484.4407,1216.4672L484.44034,1216.4672L485.1827,1213.2806L487.0909,1207.5752C487.12213,1207.4819,487.1117,1207.38,487.06256,1207.295C487.01334,1207.21,486.92975,1207.1501,486.8337,1207.1307L486.83368,1207.1307L486.82883,1207.1298L486.80768,1207.1268L486.76987,1207.1238L486.7487,1207.1233Q476.9565,1207.4824,469.14386,1207.4824Q449.17627,1207.4824,442.19412,1205.1433L442.16595,1205.1362L442.11462,1205.1278L442.08533,1205.1255 Z"/>
</g>
<g style="fill:rgb(53,53,53); fill-opacity:1.0; stroke-linejoin: miter">
<path d="M405.45465,1208.756C405.41016,1208.756,405.3669,1208.7708,405.33176,1208.798Q398.00757,1214.4757,356.69925,1220.0558L356.6848,1220.0582Q355.90106,1220.2231,355.1551,1220.2231Q354.00452,1220.2231,352.94046,1219.8318L352.925,1219.8268L352.92148,1219.8258C352.90366,1219.8208,352.8856,1219.8185,352.86774,1219.8185C352.8008,1219.8185,352.73676,1219.852,352.6992,1219.9103L346.05844,1230.2001L346.05838,1230.2001Q339.97375,1239.1509,332.6034,1248.949L332.57877,1248.9918Q332.57117,1249.0099,332.56522,1249.0297Q332.43024,1249.4775,333.43033,1251.6173L333.43118,1251.6191L340.60974,1266.588C340.64386,1266.6592,340.71524,1266.7019,340.79062,1266.7019C340.8111,1266.7019,340.83185,1266.6987,340.85226,1266.6921Q345.74094,1265.1124,376.61777,1258.7893L376.6174,1258.7893Q390.0718,1256.2277,403.73254,1254.9434L403.74258,1254.9421Q405.3938,1254.7025,406.39377,1254.1755L406.3938,1254.1755Q407.38556,1253.6528,407.87292,1252.7273L407.86884,1252.7273Q407.8923,1252.7129,407.9144,1252.6943L407.91458,1252.6941Q408.37997,1252.3011,408.48438,1248.6057L408.4838,1248.5839Q406.22488,1220.7117,405.70435,1209.8549L405.70428,1209.8539Q405.68048,1209.4071,405.65903,1208.9471C405.65402,1208.8401,405.5658,1208.756,405.45868,1208.756 Z"/>
</g>
<g style="fill:rgb(0,0,0); fill-opacity:1.0; stroke-linejoin: miter">
<path d="M491.51657,995.0385C491.4505,995.0385,491.38687,995.04626,491.32523,995.061L491.3203,995.061Q491.01355,995.1186,490.69904,995.1724L490.69757,995.17267L490.69373,995.17334L490.6902,995.174Q467.40292,999.4245,394.26093,1007.5163L394.257,1007.5163C394.21844,1007.5201,394.17828,1007.52673,394.1386,1007.53656L394.13828,1007.5367L394.13458,1007.5376L394.13452,1007.5376C393.73044,1007.6379,393.46457,1008.02386,393.51505,1008.43713L393.51505,1008.4372C393.53464,1008.5976,393.59976,1008.7429,393.69638,1008.8604L393.69244,1008.8604Q398.0431,1015.836,402.21753,1022.83844C402.23654,1022.87036,402.25766,1022.9009,402.2807,1022.9298L402.27667,1022.9298Q404.98312,1027.4663,407.61584,1032.0189L407.61615,1032.0194C407.63544,1032.0526,407.65604,1032.0833,407.67886,1032.1125L407.6748,1032.1125Q409.89417,1035.9452,412.0683,1039.7963L412.06778,1039.7963Q415.03595,1045.5059,417.79068,1050.9729L417.79086,1050.9733C417.80893,1051.009,417.82986,1051.044,417.85303,1051.0769L417.84885,1051.0769Q421.12903,1057.5753,424.1073,1063.7234L424.10306,1063.7234Q425.45758,1069.3644,425.96783,1072.7991L425.9677,1072.7991L427.07635,1081.2107L427.07635,1081.2106C427.08023,1081.24,427.0855,1081.2684,427.09222,1081.2963L427.08795,1081.2963L433.71103,1131.5363L433.71204,1131.5437L433.7135,1131.5536L433.71436,1131.559L444.07068,1196.1436L444.07068,1196.1437C444.13245,1196.5284,444.45627,1196.8184,444.8463,1196.8363L444.84637,1196.8363L488.75372,1198.8528L488.7546,1198.8528C488.7583,1198.8529,488.78793,1198.8536,488.7917,1198.8536C488.88596,1198.8536,488.97986,1198.8374,489.0689,1198.8054L489.06888,1198.8054L490.01605,1198.4668L490.0163,1198.4667L490.016,1198.4667C490.16653,1198.4131,490.29828,1198.316,490.394,1198.1903L490.39407,1198.1903Q490.83328,1197.6138,490.77408,1196.4674L490.77243,1196.4457L490.76913,1196.4124L490.7665,1196.3909Q489.62653,1188.5925,488.6555,1169.0876L488.65552,1169.0876L486.96707,1133.0392L486.96704,1133.0392Q486.7582,1128.3273,486.87167,1123.3439Q489.48627,1033.6189,490.31635,1026.4401L490.3177,1026.4269L490.3194,1026.4072L490.3203,1026.3949Q491.3669,1009.00256,492.34308,995.92365C492.3601,995.6952,492.2812,995.46985,492.1254,995.30194L492.12534,995.3019C492.0844,995.2578,492.03955,995.21906,491.9913,995.18555L491.9864,995.18555C491.85248,995.0925,491.6899,995.0385,491.51657,995.0385 Z"/>
</g>
<g style="fill:rgb(0,0,0); fill-opacity:1.0; stroke-linejoin: miter">
<path d="M388.7932,1008.1229L388.76785,1008.1236L388.72873,1008.12573L388.7033,1008.1278Q371.15356,1010.05444,350.88596,1012.19006L350.88608,1012.19006C350.73895,1012.2055,350.60202,1012.2599,350.4872,1012.3435L350.4837,1012.3435Q350.07617,1012.4268,348.36887,1012.4268Q341.77823,1012.4268,318.3678,1010.76483L318.3505,1010.7639L318.3251,1010.76306L318.30945,1010.7628L318.30624,1010.7628C318.05148,1010.7628,317.81146,1010.8803,317.65524,1011.0817L317.6371,1011.1106L317.6339,1011.1106C317.49442,1011.30756,317.44797,1011.5565,317.5082,1011.79144L317.50824,1011.79156Q320.8276,1024.7217,325.01184,1042.1224L325.01495,1042.1346L325.02008,1042.1537L325.02365,1042.1663Q327.09708,1049.0892,345.37088,1136.9722Q346.3548,1141.8596,346.9737,1146.5365L351.61862,1182.3224Q354.07538,1201.6964,354.3175,1209.5737L354.31866,1209.5955L354.32126,1209.6289L354.32346,1209.6505Q354.46573,1210.7893,354.99902,1211.2803L354.9666,1211.2445L355.00043,1211.2817C355.1176,1211.3889,355.2617,1211.4598,355.41946,1211.4866L355.41977,1211.4866L356.41156,1211.6542L356.41248,1211.6544C356.4544,1211.6614,356.50443,1211.6658,356.5487,1211.6658C356.61047,1211.6658,356.66934,1211.6592,356.73,1211.6455L356.73007,1211.6455L399.6072,1201.9774L399.56827,1201.9818L399.60812,1201.9773C399.9885,1201.891,400.25632,1201.5497,400.24973,1201.1598L399.1456,1135.7595L399.14545,1135.7532L399.14514,1135.7432L399.1449,1135.7365L396.4906,1076.537L396.4907,1076.537Q396.42908,1074.3456,396.54074,1071.2292L396.53677,1071.2292C396.54504,1071.1827,396.5493,1071.1354,396.54944,1071.0876L396.54593,1071.0876L396.54846,1071.0851L396.54944,1071.0851L396.54944,1071.0841L396.55002,1071.0841Q396.86725,1062.7615,398.42798,1047.9946L398.4305,1047.9514L398.43134,1047.885L398.43,1047.8436L398.4295,1047.8373L398.42938,1047.8357Q398.22974,1045.3491,398.12607,1043.7637L398.12207,1043.7637Q398.2689,1043.1309,398.41617,1042.5052L398.4195,1042.49L398.41962,1042.4894L398.41943,1042.4894Q399.62247,1037.3636,400.72458,1033.156C400.72855,1033.1409,400.73172,1033.1256,400.73413,1033.1102L400.73386,1033.1102L400.75107,1033.0005L400.75668,1032.9283L400.75668,1032.9274C400.75668,1032.7988,400.72665,1032.6722,400.6689,1032.5574L400.66895,1032.5574Q397.51077,1026.2732,394.0835,1018.8781Q392.06802,1014.5092,389.55087,1008.6229C389.4212,1008.3195,389.12317,1008.1229,388.79333,1008.1229 Z"/>
</g>
<g style="fill:rgb(0,49,82); fill-opacity:1.0; stroke-linejoin: miter">
<path d="M771.95746,814.0988L771.95734,814.09955L771.9572,814.1003L771.95746,814.0988"/>
</g>
</g>
<defs>
<linearGradient id="grad3" gradientUnits="userSpaceOnUse" x1="212.04901" y1="968.2545" x2="268.59732" y2="968.2545" >
<stop offset="0.0%" style="stop-color:rgb(255,178,144); stop-opacity:1.0" />
<stop offset="100.0%" style="stop-color:rgb(255,168,154); stop-opacity:1.0" />
<stop offset="100.0%" style="stop-color:rgb(128,0,0); stop-opacity:1.0" />
</linearGradient>
<linearGradient id="grad1" gradientUnits="userSpaceOnUse" x1="235.87077" y1="520.9853" x2="499.4845" y2="520.9853" >
<stop offset="0.0%" style="stop-color:rgb(255,178,144); stop-opacity:1.0" />
<stop offset="100.0%" style="stop-color:rgb(255,168,154); stop-opacity:1.0" />
<stop offset="100.0%" style="stop-color:rgb(128,0,0); stop-opacity:1.0" />
</linearGradient>
<linearGradient id="grad0" gradientUnits="userSpaceOnUse" x1="346.3179" y1="270.60657" x2="390.6989" y2="605.8688" >
<stop offset="0.0%" style="stop-color:rgb(69,69,69); stop-opacity:1.0" />
<stop offset="100.0%" style="stop-color:rgb(128,0,0); stop-opacity:1.0" />
</linearGradient>
<linearGradient id="grad2" gradientUnits="userSpaceOnUse" x1="501.2777" y1="971.0166" x2="555.45215" y2="971.0166" >
<stop offset="100.0%" style="stop-color:rgb(255,168,154); stop-opacity:1.0" />
<stop offset="0.0%" style="stop-color:rgb(255,178,144); stop-opacity:1.0" />
<stop offset="100.0%" style="stop-color:rgb(128,0,0); stop-opacity:1.0" />
</linearGradient>
</defs>
</svg>